<?xml version="1.0" standalone="no"?>
<!DOCTYPE svg PUBLIC "-//W3C//DTD SVG 20010904//EN"
 "http://www.w3.org/TR/2001/REC-SVG-20010904/DTD/svg10.dtd">
<svg version="1.0" xmlns="http://www.w3.org/2000/svg"
 width="251.000000pt" height="200.000000pt" viewBox="0 0 251.000000 200.000000"
 preserveAspectRatio="xMidYMid meet">
<metadata>
Created by potrace 1.16, written by Peter Selinger 2001-2019
</metadata>
<g transform="translate(0.000000,200.000000) scale(0.100000,-0.100000)"
fill="#FFFFFF" stroke="none">
<path d="M1297 1710 c-4 -85 -12 -191 -19 -237 -7 -45 -10 -84 -7 -87 2 -2 19
-7 37 -11 l32 -7 0 59 c0 33 -5 85 -11 116 -5 32 -13 117 -17 190 l-7 132 -8
-155z"/>
<path d="M1171 1603 c0 -128 2 -233 7 -233 16 0 29 17 36 45 18 71 17 106 -3
186 -12 46 -25 118 -30 159 -7 59 -9 27 -10 -157z"/>
<path d="M1400 1625 c0 -33 -5 -96 -10 -140 -11 -106 -5 -130 37 -155 20 -12
37 -20 38 -18 2 2 -1 37 -6 78 -6 41 -14 109 -18 150 -5 41 -15 91 -24 110
l-15 35 -2 -60z"/>
<path d="M958 1264 c-4 -3 -53 -19 -110 -35 -82 -24 -228 -90 -228 -103 0 -1
21 -1 48 2 26 2 78 6 116 7 49 3 72 8 78 19 4 8 23 19 41 25 35 12 98 91 73
91 -7 0 -15 -3 -18 -6z"/>
<path d="M843 1084 c-95 -20 -364 -111 -398 -134 -40 -27 -33 -26 88 15 57 19
114 35 125 35 12 0 47 7 79 15 31 8 76 15 99 15 46 0 74 19 74 51 0 10 -1 19
-2 18 -2 -1 -31 -7 -65 -15z"/>
<path d="M1822 1084 c-16 -11 -45 -16 -98 -15 -42 0 -79 3 -84 6 -18 11 -40
-8 -40 -35 l0 -28 198 5 c108 3 224 11 257 17 l60 12 -85 13 c-47 7 -94 12
-105 12 -11 0 -30 6 -42 14 -28 19 -33 19 -61 -1z"/>
<path d="M955 1049 c11 -54 40 -112 74 -151 35 -40 121 -88 158 -88 20 0 23 5
23 36 0 122 -86 216 -212 231 l-50 6 7 -34z"/>
<path d="M1443 1066 c-62 -20 -98 -51 -127 -108 -34 -68 -37 -148 -6 -148 24
0 92 33 136 66 36 28 79 103 92 162 l10 42 -32 -1 c-17 0 -50 -6 -73 -13z"/>
<path d="M808 959 c-10 -5 -69 -21 -132 -34 -99 -21 -286 -92 -286 -109 0 -3
15 1 32 8 62 26 139 46 132 34 -5 -8 -1 -9 12 -3 70 29 119 37 231 38 75 1
123 6 123 12 0 6 -3 21 -7 34 -5 21 -10 22 -44 17 -20 -3 -39 -2 -41 3 -2 6
-10 6 -20 0z"/>
<path d="M1776 941 c-5 -7 -44 -11 -101 -11 l-93 0 -11 -32 c-6 -17 -10 -32
-9 -33 4 -4 366 13 433 20 90 9 104 25 23 25 -38 0 -68 4 -68 9 0 5 -21 12
-47 15 -27 2 -64 8 -84 11 -23 4 -39 3 -43 -4z"/>
<path d="M1680 785 c-9 -11 -30 -14 -91 -11 l-79 3 -26 -36 c-15 -20 -41 -50
-57 -68 l-30 -32 12 -103 c20 -164 25 -167 41 -23 24 212 20 195 49 196 129 2
361 19 381 26 22 9 19 11 -35 22 -33 6 -71 13 -84 16 -13 2 -28 8 -34 14 -15
15 -32 14 -47 -4z"/>
<path d="M1306 565 c-28 -22 -29 -25 -22 -82 4 -32 11 -96 16 -143 5 -47 13
-101 17 -120 l9 -35 7 50 c13 88 20 321 11 337 -8 14 -12 13 -38 -7z"/>
</g>
</svg>
